<?xml version="1.0" encoding="UTF-8" standalone="no"?>
<!-- Created with Inkscape (http://www.inkscape.org/) -->

<svg
   version="1.1"
   id="svg2"
   xml:space="preserve"
   width="711.68396"
   height="711.68396"
   viewBox="0 0 711.68396 711.68396"
   sodipodi:docname="c588d9a2f8d1ee93ac793ca64b6bc7ea.ai"
   xmlns:inkscape="http://www.inkscape.org/namespaces/inkscape"
   xmlns:sodipodi="http://sodipodi.sourceforge.net/DTD/sodipodi-0.dtd"
   xmlns="http://www.w3.org/2000/svg"
   xmlns:svg="http://www.w3.org/2000/svg"><defs
     id="defs6"><clipPath
       clipPathUnits="userSpaceOnUse"
       id="clipPath16"><path
         d="M 266.881,533.763 C 119.487,533.763 0,414.277 0,266.882 v 0 C 0,119.487 119.487,0 266.881,0 v 0 c 147.395,0 266.882,119.487 266.882,266.882 v 0 c 0,147.395 -119.487,266.881 -266.882,266.881 z"
         id="path14" /></clipPath><linearGradient
       x1="0"
       y1="0"
       x2="1"
       y2="0"
       gradientUnits="userSpaceOnUse"
       gradientTransform="matrix(-2.32e-5,-531.8158,-531.8158,2.32e-5,266.88135,533.76318)"
       spreadMethod="pad"
       id="linearGradient26"><stop
         style="stop-opacity:1;stop-color:#42bde9"
         offset="0"
         id="stop22" /><stop
         style="stop-opacity:1;stop-color:#23a8dd"
         offset="1"
         id="stop24" /></linearGradient><clipPath
       clipPathUnits="userSpaceOnUse"
       id="clipPath36"><path
         d="M 0,533.763 H 533.763 V 0 H 0 Z"
         id="path34" /></clipPath></defs><sodipodi:namedview
     id="namedview4"
     pagecolor="#ffffff"
     bordercolor="#666666"
     borderopacity="1.0"
     inkscape:pageshadow="2"
     inkscape:pageopacity="0.0"
     inkscape:pagecheckerboard="0" /><g
     id="g8"
     inkscape:groupmode="layer"
     inkscape:label="c588d9a2f8d1ee93ac793ca64b6bc7ea"
     transform="matrix(1.3333333,0,0,-1.3333333,0,711.68398)"><g
       id="g10"><g
         id="g12"
         clip-path="url(#clipPath16)"><g
           id="g18"><g
             id="g20"><path
               d="M 266.881,533.763 C 119.487,533.763 0,414.277 0,266.882 v 0 C 0,119.487 119.487,0 266.881,0 v 0 c 147.395,0 266.882,119.487 266.882,266.882 v 0 c 0,147.395 -119.487,266.881 -266.882,266.881 z"
               style="fill:url(#linearGradient26);stroke:none"
               id="path28" /></g></g></g></g><g
       id="g30"><g
         id="g32"
         clip-path="url(#clipPath36)"><g
           id="g38"
           transform="translate(396.7412,380.2417)"><path
             d="m 0,0 -47.667,-240.333 c 0,0 -6.667,-16.667 -25,-8.667 l -110,84.334 -40,19.333 -67.333,22.667 c 0,0 -10.333,3.666 -11.333,11.666 -1,8 11.666,12.334 11.666,12.334 L -22,6.334 C -22,6.334 0,16 0,0"
             style="fill:#ffffff;fill-opacity:1;fill-rule:nonzero;stroke:none"
             id="path40" /></g><g
           id="g42"
           transform="translate(205.6191,142.6074)"><path
             d="m 0,0 c 0,0 -3.211,0.301 -7.211,12.969 -4,12.666 -24.334,79.332 -24.334,79.332 l 161.667,102.667 c 0,0 9.333,5.666 9,0 0,0 1.667,-1 -3.333,-5.667 -5,-4.667 -127,-114.332 -127,-114.332"
             style="fill:#d3e6f2;fill-opacity:1;fill-rule:nonzero;stroke:none"
             id="path44" /></g><g
           id="g46"
           transform="translate(256.251,183.2402)"><path
             d="m 0,0 -43.51,-39.67 c 0,0 -3.401,-2.58 -7.122,-0.963 l 8.331,73.686"
             style="fill:#b6d0e5;fill-opacity:1;fill-rule:nonzero;stroke:none"
             id="path48" /></g></g></g></g></svg>
