<?xml version="1.0" encoding="UTF-8" standalone="no"?>
<!-- Created with Inkscape (http://www.inkscape.org/) -->

<svg
   version="1.1"
   id="svg2"
   xml:space="preserve"
   width="109.25066"
   height="75.807999"
   viewBox="0 0 109.25066 75.807999"
   sodipodi:docname="edb33f87e80faf7f527933707745d1c9.ai"
   xmlns:inkscape="http://www.inkscape.org/namespaces/inkscape"
   xmlns:sodipodi="http://sodipodi.sourceforge.net/DTD/sodipodi-0.dtd"
   xmlns="http://www.w3.org/2000/svg"
   xmlns:svg="http://www.w3.org/2000/svg"><defs
     id="defs6"><clipPath
       clipPathUnits="userSpaceOnUse"
       id="clipPath16"><path
         d="M 24.939,60.428 C 3.53,60.428 3.53,54.329 3.53,39.329 v 0 -14.658 C 3.53,10.406 6.562,3.572 24.939,3.572 v 0 h 39.119 c 16.599,0 21.41,3.994 21.41,21.099 v 0 14.658 c 0,15.789 -0.809,21.099 -21.41,21.099 v 0 z"
         id="path14" /></clipPath><linearGradient
       x1="0"
       y1="0"
       x2="1"
       y2="0"
       gradientUnits="userSpaceOnUse"
       gradientTransform="matrix(0,-56.856361,-56.856361,0,44.498596,60.428162)"
       spreadMethod="pad"
       id="linearGradient26"><stop
         style="stop-opacity:1;stop-color:#ed1c24"
         offset="0"
         id="stop22" /><stop
         style="stop-opacity:1;stop-color:#bf1e2d"
         offset="1"
         id="stop24" /></linearGradient><clipPath
       clipPathUnits="userSpaceOnUse"
       id="clipPath36"><path
         d="M 0,64 H 90 V 0 H 0 Z"
         id="path34" /></clipPath></defs><sodipodi:namedview
     id="namedview4"
     pagecolor="#ffffff"
     bordercolor="#666666"
     borderopacity="1.0"
     inkscape:pageshadow="2"
     inkscape:pageopacity="0.0"
     inkscape:pagecheckerboard="0" /><g
     id="g8"
     inkscape:groupmode="layer"
     inkscape:label="edb33f87e80faf7f527933707745d1c9"
     transform="matrix(1.3333333,0,0,-1.3333333,-4.7066665,80.570665)"><g
       id="g10"><g
         id="g12"
         clip-path="url(#clipPath16)"><g
           id="g18"><g
             id="g20"><path
               d="M 24.939,60.428 C 3.53,60.428 3.53,54.329 3.53,39.329 v 0 -14.658 C 3.53,10.406 6.562,3.572 24.939,3.572 v 0 h 39.119 c 16.599,0 21.41,3.994 21.41,21.099 v 0 14.658 c 0,15.789 -0.809,21.099 -21.41,21.099 v 0 z"
               style="fill:url(#linearGradient26);stroke:none"
               id="path28" /></g></g></g></g><g
       id="g30"><g
         id="g32"
         clip-path="url(#clipPath36)"><g
           id="g38"
           transform="translate(36.1279,43.869)"><path
             d="M 0,0 22.085,-11.468 0,-23.011 Z"
             style="fill:#ffffff;fill-opacity:1;fill-rule:nonzero;stroke:none"
             id="path40" /></g><g
           id="g42"
           transform="translate(55.5121,30.9827)"><path
             d="M 0,0 -19.384,12.889 2.701,1.42 Z"
             style="fill:#e7e0e0;fill-opacity:1;fill-rule:nonzero;stroke:none"
             id="path44" /></g></g></g></g></svg>
